<?xml version="1.0" encoding="UTF-8" standalone="no"?>
<svg
   width="258.7746"
   zoomAndPan="magnify"
   viewBox="0 0 194.08095 167.00323"
   height="222.67097"
   preserveAspectRatio="xMidYMid"
   version="1.2"
   id="svg42"
   sodipodi:docname="favicon.svg"
   inkscape:version="1.4.2 (ebf0e940d0, 2025-05-08)"
   xmlns:inkscape="http://www.inkscape.org/namespaces/inkscape"
   xmlns:sodipodi="http://sodipodi.sourceforge.net/DTD/sodipodi-0.dtd"
   xmlns="http://www.w3.org/2000/svg"
   xmlns:svg="http://www.w3.org/2000/svg">
  <sodipodi:namedview
     id="namedview42"
     pagecolor="#ffffff"
     bordercolor="#000000"
     borderopacity="0.25"
     inkscape:showpageshadow="2"
     inkscape:pageopacity="0.0"
     inkscape:pagecheckerboard="0"
     inkscape:deskcolor="#d1d1d1"
     inkscape:zoom="1.516"
     inkscape:cx="138.19261"
     inkscape:cy="111.47757"
     inkscape:window-width="1920"
     inkscape:window-height="1011"
     inkscape:window-x="0"
     inkscape:window-y="0"
     inkscape:window-maximized="1"
     inkscape:current-layer="svg42" />
  <defs
     id="defs4">
    <clipPath
       id="ffd4153603">
      <path
         d="M 111,112 H 270 V 271 H 111 Z m 0,0"
         id="path1" />
    </clipPath>
    <clipPath
       id="0b10210aaf">
      <path
         d="m 90.785156,191.29687 68.542964,-88.25781 124.98829,97.0625 -68.54297,88.26172 z m 0,0"
         id="path2" />
    </clipPath>
    <clipPath
       id="0ceaa487d7">
      <path
         d="m 90.726562,191.375 69.460938,-89.44531 124.98828,97.0664 -69.46484,89.44532 z m 0,0"
         id="path3" />
    </clipPath>
    <clipPath
       id="7cd953c83e">
      <path
         d="M 79.707031,205.5625 176.77344,80.574219 301.75781,177.64062 204.69531,302.625 Z m 0,0"
         id="path4" />
    </clipPath>
  </defs>
  <g
     id="49716177c2"
     transform="translate(-84.208678,-103.6852)">
    <g
       clip-rule="nonzero"
       clip-path="url(#ffd4153603)"
       id="g8">
      <g
         clip-rule="nonzero"
         clip-path="url(#0b10210aaf)"
         id="g7">
        <g
           clip-rule="nonzero"
           clip-path="url(#0ceaa487d7)"
           id="g6">
          <g
             clip-rule="nonzero"
             clip-path="url(#7cd953c83e)"
             id="g5">
            <path
               style="fill:#000000;fill-opacity:1;fill-rule:nonzero;stroke:none"
               d="m 253.22656,240.13281 c -26.7539,34.44922 -76.57812,40.71485 -111.02734,13.96094 -34.44531,-26.75391 -40.71094,-76.57813 -13.95703,-111.02344 26.75,-34.44922 76.57422,-40.71484 111.02343,-13.96094 34.44922,26.75 40.71485,76.57813 13.96094,111.02344 z m -124.0625,-96.34765 c -26.37109,33.95703 -20.20312,83.01562 13.75391,109.38671 33.95703,26.36719 83.01562,20.19922 109.38672,-13.7539 26.36718,-33.95703 20.19922,-83.01563 -13.75391,-109.38672 -33.95703,-26.37109 -83.01562,-20.19922 -109.38672,13.75391 z m 0,0"
               id="path5" />
          </g>
        </g>
      </g>
    </g>
    <g
       style="fill:#000000;fill-opacity:1"
       id="g10">
      <g
         transform="translate(119.95868,233.97306)"
         id="g9">
        <path
           style="stroke:none"
           d="m 134.46875,-22.734375 c -3.16797,-0.363281 -6.35938,-0.546875 -9.57812,-0.546875 -1.40625,-0.05078 -2.83985,-0.09375 -4.29688,-0.125 -13.29297,-0.550781 -26.609375,-0.691406 -39.953125,-0.421875 -0.667969,0 -1.214844,0 -1.640625,0 -0.742188,-0.05078 -1.277344,-0.04687 -1.609375,0.01563 -0.324219,0.05469 -0.585937,0.234375 -0.78125,0.546875 -0.199219,0.304687 -0.433594,0.804687 -0.703125,1.5 -0.179688,0.398437 -0.390625,0.890625 -0.640625,1.484375 -2.230469,4.84375 -4.273437,9.773438 -6.125,14.78125 -1.210937,3.242188 -2.148437,6.554688 -2.8125,9.953125 -0.25,1.0625 -0.339844,2.09375 -0.265625,3.09375 0.07031,1.007813 0.523438,1.910156 1.359375,2.703125 0.113281,0.08203 0.15625,0.1875 0.125,0.3125 -0.03125,0.125 -0.105469,0.238281 -0.21875,0.34375 -0.117187,0.113281 -0.242187,0.1875 -0.375,0.21875 -1.980469,0.289062 -3.167969,-0.417969 -3.5625,-2.125 -0.230469,-0.960938 -0.273437,-1.945312 -0.125,-2.953125 0,-0.085937 0,-0.140625 0,-0.171875 0.15625,-1.742188 0.46875,-3.46875 0.9375,-5.1875 0.46875,-1.71875 0.992187,-3.441406 1.578125,-5.171875 1.875,-5.164063 3.9375,-10.269531 6.1875,-15.3125 0.125,-0.21875 0.21875,-0.4375 0.28125,-0.65625 0.113281,-0.25 0.238281,-0.503906 0.375,-0.765625 0.175781,-0.363281 0.335938,-0.726562 0.484375,-1.09375 0.15625,-0.363281 0.21875,-0.75 0.1875,-1.15625 -0.1875,-0.144531 -0.375,-0.234375 -0.5625,-0.265625 -0.179687,-0.03125 -0.355469,-0.03125 -0.53125,0 -0.03125,0 -0.07422,0 -0.125,0 -1.5625,0 -3.132813,0.01563 -4.703125,0.04687 -0.429688,0 -0.886719,0 -1.375,0 -0.574219,0.03125 -1.0625,0.214844 -1.46875,0.546875 -0.398438,0.335937 -0.777344,0.742187 -1.140625,1.21875 -0.480469,0.617187 -0.960937,1.230469 -1.4375,1.84375 -2.042969,2.605469 -4.101563,5.183594 -6.171875,7.734375 -3.074219,3.71875 -6.28125,7.304688 -9.625,10.75 -3.335938,3.445312 -6.875,6.679688 -10.625,9.703125 -4.710938,3.882813 -9.710938,7.300781 -15,10.25 -8.09375,4.34375 -16.578125,6.398437 -25.453125,6.171875 -8.363281,-0.1875 -15.90625,-2.445312 -22.625,-6.765625 -1.882813,-1.210937 -3.554687,-2.667969 -5.015625,-4.375 -0.976562,-1.21875 -1.753906,-2.53125 -2.328125,-3.9375 C -35.460938,8.054688 -35.75,6.539062 -35.75,4.90625 c 0.08594,-1.980469 0.539062,-3.808594 1.359375,-5.484375 0.8125,-1.6875 1.953125,-3.21875 3.421875,-4.59375 2,-1.9375 4.203125,-3.578125 6.609375,-4.921875 2.34375,-1.363281 4.757813,-2.554688 7.234375,-3.578125 2.480469,-1.019531 4.980469,-1.925781 7.5,-2.71875 4.074219,-1.3125 8.195312,-2.414063 12.359375,-3.3125 4.164063,-0.894531 8.347656,-1.660156 12.546875,-2.296875 9.945312,-1.375 19.921875,-2.285156 29.921875,-2.734375 5.113281,-0.3125 10.207031,-0.46875 15.28125,-0.46875 1.394531,0.03125 2.472656,-0.554687 3.234375,-1.765625 1.34375,-1.894531 2.691406,-3.796875 4.046875,-5.703125 2.113281,-2.914063 4.1875,-5.882813 6.21875,-8.90625 9.488281,-14.164063 18.582031,-28.5625 27.281255,-43.1875 0.72656,-1.238281 1.4414,-2.5 2.14062,-3.78125 0.32031,-0.644531 0.66406,-1.300781 1.03125,-1.96875 0.4375,-0.84375 1.12891,-1.3125 2.07813,-1.40625 0.50781,0 0.88281,0.148437 1.125,0.4375 0.23828,0.28125 0.26953,0.664063 0.0937,1.140625 -0.1875,0.40625 -0.39844,0.792969 -0.625,1.15625 -1.41797,2.523438 -2.67188,5.074219 -3.76563,7.65625 -0.40625,0.917969 -0.8125,1.8125 -1.21875,2.6875 -3.824219,8.3125 -7.667969,16.632812 -11.53125,24.953125 -2.960938,6.417969 -5.9375,12.855469 -8.9375,19.3125 -0.867188,1.90625 -1.71875,3.804687 -2.5625,5.6875 -0.1875,0.40625 -0.371094,0.792969 -0.546875,1.15625 -0.03125,0.08594 -0.07031,0.171875 -0.109375,0.265625 -0.117188,0.273438 -0.210938,0.539062 -0.28125,0.796875 -0.07422,0.25 -0.05469,0.5 0.0625,0.75 0.25,0.179687 0.539062,0.277344 0.875,0.296875 0.332031,0.02344 0.640625,0.03125 0.921875,0.03125 0.226563,-0.03906 0.4375,-0.0625 0.625,-0.0625 1.375,0.04297 2.757813,0.04297 4.15625,0 1.882813,0 3.78125,0.02344 5.6875,0.0625 10.351565,0.179688 20.710935,0.402344 31.078125,0.671875 3.39453,0.0625 6.76953,0.203125 10.125,0.421875 0.30078,0.03125 0.61328,0.04687 0.9375,0.04687 0.1875,0 0.39062,0 0.60937,0 0.42579,0 0.84375,0.03906 1.25,0.109375 0.40625,0.07422 0.78907,0.21875 1.15625,0.4375 0.0703,0.05469 0.125,0.132812 0.15625,0.234375 0.0312,0.105469 0.0312,0.195313 0,0.265625 0,0.117188 -0.0469,0.21875 -0.14062,0.3125 -0.0937,0.08594 -0.17188,0.148438 -0.23438,0.1875 -0.30468,0.117188 -0.62109,0.171875 -0.95312,0.171875 z M 60.3125,-22.46875 c 0.113281,-0.226562 0.125,-0.429688 0.03125,-0.609375 -0.09375,-0.1875 -0.246094,-0.28125 -0.453125,-0.28125 -0.335937,-0.03125 -0.683594,-0.03125 -1.046875,0 -0.1875,0 -0.371094,0 -0.546875,0 -12.523437,0.148437 -25.054687,1.007813 -37.59375,2.578125 -4.792969,0.585938 -9.5625,1.351562 -14.3125,2.296875 -4.742187,0.949219 -9.441406,2.136719 -14.109375,3.5625 -2.476562,0.761719 -4.925781,1.636719 -7.34375,2.625 -2.425781,0.980469 -4.796875,2.152344 -7.109375,3.515625 -2.40625,1.34375 -4.59375,2.984375 -6.5625,4.921875 -2.300781,2.375 -3.597656,4.898437 -3.890625,7.578125 -0.289062,2.675781 0.421875,5.257812 2.140625,7.75 1.28125,1.738281 2.808594,3.234375 4.578125,4.484375 6.46875,4.59375 14.179688,6.929687 23.125,7.015625 2.28125,0 4.90625,-0.304688 7.875,-0.90625 2.957031,-0.617188 5.8125,-1.515625 8.5625,-2.703125 2.75,-1.179687 5.421875,-2.574219 8.015625,-4.1875 C 28.054688,11.242188 33.96875,6.664062 39.40625,1.4375 c 3.769531,-3.53125 7.320312,-7.25 10.65625,-11.15625 3.332031,-3.90625 6.566406,-7.878906 9.703125,-11.921875 0.175781,-0.300781 0.359375,-0.578125 0.546875,-0.828125 z m 15.21875,-5.140625 c 2.40625,-5.476563 4.882812,-10.9375 7.4375,-16.375 0.113281,-0.300781 0.5,-1.160156 1.15625,-2.578125 0.65625,-1.414062 1.410156,-3.066406 2.265625,-4.953125 0.851563,-1.882813 1.632813,-3.660156 2.34375,-5.328125 0.71875,-1.675781 1.222656,-2.929688 1.515625,-3.765625 0.289062,-0.84375 0.203125,-0.925781 -0.265625,-0.25 -0.117187,0.15625 -0.203125,0.308594 -0.265625,0.453125 -0.398438,0.585938 -0.777344,1.164062 -1.140625,1.734375 -3.042969,4.71875 -6.101563,9.429687 -9.171875,14.125 -3.0625,4.6875 -6.234375,9.3125 -9.515625,13.875 -0.324219,0.429687 -0.648437,0.882813 -0.96875,1.359375 -0.636719,0.867188 -1.261719,1.734375 -1.875,2.609375 -0.25,0.375 -0.324219,0.683594 -0.21875,0.921875 0.113281,0.242188 0.367187,0.359375 0.765625,0.359375 0.664062,0 1.320312,-0.01953 1.96875,-0.0625 1.03125,-0.07031 2.050781,-0.109375 3.0625,-0.109375 0.78125,0.03125 1.382812,-0.132812 1.8125,-0.5 0.4375,-0.363281 0.800781,-0.867188 1.09375,-1.515625 z m 0,0"
           id="path8" />
      </g>
    </g>
    <g
       style="fill:#000000;fill-opacity:1"
       id="g12">
      <g
         transform="translate(177.79585,121.81429)"
         id="g11">
        <path
           style="stroke:none"
           d="m 10.25,-3.296875 -0.01563,-0.03125 c 0,-0.03125 -0.01172,-0.078125 -0.03125,-0.140625 -0.01172,-0.070312 -0.02344,-0.128906 -0.03125,-0.171875 -0.0625,-0.1875 -0.15625,-0.382813 -0.28125,-0.59375 -0.125,-0.21875 -0.3125,-0.46875 -0.5625,-0.75 L 7.4375,-7.09375 C 7.101562,-6.988281 6.65625,-6.847656 6.09375,-6.671875 5.539062,-6.492188 4.941406,-6.300781 4.296875,-6.09375 3.816406,-5.9375 3.351562,-5.785156 2.90625,-5.640625 2.457031,-5.492188 2.0625,-5.363281 1.71875,-5.25 L 1.4375,-2.53125 c -0.011719,0.25 -0.027344,0.527344 -0.046875,0.828125 C 1.378906,-1.410156 1.414062,-1.125 1.5,-0.84375 c 0.019531,0.074219 0.046875,0.136719 0.078125,0.1875 0.03125,0.042969 0.054687,0.074219 0.078125,0.09375 L 1.671875,-0.53125 -0.171875,0.0625 -0.1875,0.03125 c 0.074219,-0.15625 0.140625,-0.40625 0.203125,-0.75 0.0703125,-0.34375 0.132813,-0.765625 0.1875,-1.265625 L 1.6875,-15.125 l 0.71875,-0.234375 8.453125,9.453125 c 0.1875,0.230469 0.378906,0.445312 0.578125,0.640625 0.207031,0.199219 0.394531,0.382813 0.5625,0.546875 0.175781,0.15625 0.328125,0.289062 0.453125,0.390625 0.125,0.105469 0.207031,0.171875 0.25,0.203125 l 0.01563,0.03125 z M 2.78125,-6.46875 C 3.125,-6.570312 3.476562,-6.6875 3.84375,-6.8125 4.21875,-6.9375 4.578125,-7.054688 4.921875,-7.171875 5.273438,-7.285156 5.613281,-7.394531 5.9375,-7.5 6.257812,-7.613281 6.550781,-7.71875 6.8125,-7.8125 l -4.375,-4.90625 -0.640625,6.578125 z m 0,0"
           id="path10" />
      </g>
    </g>
    <g
       style="fill:#000000;fill-opacity:1"
       id="g14">
      <g
         transform="translate(189.5901,118.2477)"
         id="g13">
        <path
           style="stroke:none"
           d="m -0.390625,-10.5625 c -0.101563,-0.53125 -0.195313,-0.992188 -0.28125,-1.390625 C -0.765625,-12.347656 -0.84375,-12.6875 -0.90625,-12.96875 -0.976562,-13.25 -1.046875,-13.476562 -1.109375,-13.65625 -1.179688,-13.84375 -1.25,-14 -1.3125,-14.125 v -0.03125 l 2.140625,-0.40625 v 0.03125 c -0.011719,0.148438 -0.015625,0.320312 -0.015625,0.515625 0.007812,0.1875 0.023438,0.429687 0.046875,0.71875 0.03125,0.292969 0.078125,0.636719 0.140625,1.03125 0.0625,0.398437 0.144531,0.859375 0.25,1.390625 l 1.203125,6.65625 c 0.101563,0.523438 0.191406,0.980469 0.265625,1.375 0.082031,0.398438 0.160156,0.734375 0.234375,1.015625 0.082031,0.28125 0.15625,0.515625 0.21875,0.703125 0.0625,0.1875 0.128906,0.34375 0.203125,0.46875 V -0.625 L 1.234375,-0.21875 V -0.25 c 0,-0.144531 0,-0.316406 0,-0.515625 0,-0.195313 -0.023437,-0.441406 -0.0625,-0.734375 -0.03125,-0.289062 -0.074219,-0.632812 -0.125,-1.03125 C 0.992188,-2.925781 0.914062,-3.382812 0.8125,-3.90625 Z m 0,0"
           id="path12" />
      </g>
    </g>
    <g
       style="fill:#000000;fill-opacity:1"
       id="g16">
      <g
         transform="translate(193.13961,117.01208)"
         id="g15">
        <path
           style="stroke:none"
           d="M 7.640625,-6.546875 C 7.640625,-6.960938 7.59375,-7.320312 7.5,-7.625 7.40625,-7.925781 7.273438,-8.175781 7.109375,-8.375 6.953125,-8.570312 6.753906,-8.71875 6.515625,-8.8125 c -0.230469,-0.09375 -0.480469,-0.132812 -0.75,-0.125 -0.199219,0 -0.417969,0.042969 -0.65625,0.125 -0.230469,0.074219 -0.46875,0.179688 -0.71875,0.3125 -0.242187,0.136719 -0.480469,0.292969 -0.71875,0.46875 -0.242187,0.179688 -0.476563,0.371094 -0.703125,0.578125 -0.011719,0.199219 -0.015625,0.414063 -0.015625,0.640625 0.00781,0.230469 0.019531,0.480469 0.03125,0.75 l 0.046875,2.296875 c 0.00781,0.53125 0.023438,1 0.046875,1.40625 0.03125,0.398437 0.054687,0.742187 0.078125,1.03125 0.03125,0.292969 0.0625,0.539063 0.09375,0.734375 0.039062,0.199219 0.082031,0.359375 0.125,0.484375 v 0.03125 L 1.1875,-0.03125 V -0.0625 c 0.039062,-0.132812 0.070312,-0.300781 0.09375,-0.5 0.03125,-0.195312 0.050781,-0.441406 0.0625,-0.734375 0.019531,-0.289063 0.03125,-0.632813 0.03125,-1.03125 0.00781,-0.40625 0.00781,-0.875 0,-1.40625 L 1.328125,-6.03125 C 1.316406,-6.570312 1.296875,-7.039062 1.265625,-7.4375 1.242188,-7.84375 1.21875,-8.191406 1.1875,-8.484375 1.164062,-8.773438 1.132812,-9.015625 1.09375,-9.203125 1.0625,-9.398438 1.023438,-9.566406 0.984375,-9.703125 V -9.75 l 2.1875,-0.046875 V -9.75 c -0.054687,0.15625 -0.089844,0.351562 -0.109375,0.578125 -0.023438,0.21875 -0.042969,0.5 -0.0625,0.84375 0.238281,-0.21875 0.503906,-0.425781 0.796875,-0.625 0.289063,-0.195313 0.585937,-0.375 0.890625,-0.53125 0.300781,-0.15625 0.601562,-0.285156 0.90625,-0.390625 0.3125,-0.101562 0.617188,-0.160156 0.921875,-0.171875 0.363281,-0.0078 0.679687,0.03125 0.953125,0.125 0.28125,0.09375 0.523438,0.21875 0.734375,0.375 0.21875,0.15625 0.398437,0.351563 0.546875,0.578125 0.15625,0.21875 0.269531,0.453125 0.34375,0.703125 0.257812,-0.226563 0.539062,-0.453125 0.84375,-0.671875 0.300781,-0.226562 0.609375,-0.429688 0.921875,-0.609375 0.320313,-0.1875 0.648437,-0.335937 0.984375,-0.453125 0.34375,-0.113281 0.675781,-0.175781 1,-0.1875 0.488281,-0.0078 0.90625,0.07031 1.25,0.234375 0.351562,0.167969 0.640625,0.390625 0.859375,0.671875 0.226563,0.273438 0.394531,0.585938 0.5,0.9375 0.101563,0.355469 0.160156,0.714844 0.171875,1.078125 l 0.0625,3.234375 c 0.0078,0.53125 0.02344,1 0.04687,1.40625 0.03125,0.398438 0.0625,0.742188 0.09375,1.03125 0.03125,0.292969 0.0625,0.539062 0.09375,0.734375 0.03906,0.1875 0.08203,0.351563 0.125,0.484375 v 0.03125 l -2.203125,0.046875 v -0.03125 c 0.03906,-0.132813 0.07031,-0.300781 0.09375,-0.5 0.03125,-0.195313 0.05469,-0.441406 0.07813,-0.734375 0.01953,-0.289062 0.03125,-0.632812 0.03125,-1.03125 0.0078,-0.40625 0.0078,-0.875 0,-1.40625 l -0.0625,-2.6875 c -0.01172,-0.832031 -0.195313,-1.441406 -0.546875,-1.828125 -0.34375,-0.382813 -0.796875,-0.570313 -1.359375,-0.5625 -0.1875,0.011719 -0.402344,0.058594 -0.640625,0.140625 -0.242188,0.074219 -0.484375,0.183594 -0.734375,0.328125 -0.25,0.136719 -0.5,0.292969 -0.75,0.46875 -0.242187,0.179687 -0.46875,0.367187 -0.6875,0.5625 0.00781,0.074219 0.015625,0.152344 0.015625,0.234375 0.00781,0.074219 0.015625,0.140625 0.015625,0.203125 l 0.0625,3.234375 c 0.00781,0.53125 0.023437,1 0.046875,1.40625 0.03125,0.398438 0.054688,0.742188 0.078125,1.03125 0.03125,0.292969 0.066406,0.539062 0.109375,0.734375 0.039062,0.199219 0.082031,0.367187 0.125,0.5 v 0.03125 L 7.515625,-0.15625 V -0.1875 c 0.039063,-0.132812 0.070313,-0.300781 0.09375,-0.5 0.03125,-0.195312 0.054687,-0.441406 0.078125,-0.734375 0.019531,-0.289063 0.03125,-0.632813 0.03125,-1.03125 0,-0.40625 -0.00781,-0.875 -0.015625,-1.40625 z m 0,0"
           id="path14" />
      </g>
    </g>
    <g
       style="fill:#000000;fill-opacity:1"
       id="g18">
      <g
         transform="translate(209.15862,117.02858)"
         id="g17">
        <path
           style="stroke:none"
           d="M 6.890625,-6.828125 H 6.75 C 6.726562,-6.972656 6.679688,-7.132812 6.609375,-7.3125 6.535156,-7.5 6.429688,-7.671875 6.296875,-7.828125 6.171875,-7.992188 6.007812,-8.132812 5.8125,-8.25 5.613281,-8.375 5.367188,-8.457031 5.078125,-8.5 4.878906,-8.53125 4.691406,-8.53125 4.515625,-8.5 4.335938,-8.46875 4.175781,-8.40625 4.03125,-8.3125 3.882812,-8.226562 3.757812,-8.113281 3.65625,-7.96875 3.5625,-7.820312 3.5,-7.640625 3.46875,-7.421875 c -0.054688,0.3125 -0.00781,0.625 0.140625,0.9375 0.15625,0.304687 0.351563,0.609375 0.59375,0.921875 0.25,0.3125 0.515625,0.636719 0.796875,0.96875 0.28125,0.335938 0.539062,0.671875 0.78125,1.015625 0.25,0.335937 0.441406,0.6875 0.578125,1.0625 C 6.492188,-2.148438 6.53125,-1.769531 6.46875,-1.375 6.414062,-1.0625 6.3125,-0.757812 6.15625,-0.46875 6,-0.175781 5.785156,0.0664062 5.515625,0.265625 5.242188,0.460938 4.914062,0.609375 4.53125,0.703125 4.144531,0.796875 3.703125,0.800781 3.203125,0.71875 2.898438,0.675781 2.617188,0.601562 2.359375,0.5 2.109375,0.40625 1.878906,0.296875 1.671875,0.171875 1.472656,0.0546875 1.296875,-0.0625 1.140625,-0.1875 0.984375,-0.320312 0.847656,-0.441406 0.734375,-0.546875 L 1.09375,-2.328125 1.25,-2.296875 c 0.019531,0.3125 0.070312,0.601563 0.15625,0.859375 0.09375,0.25 0.21875,0.480469 0.375,0.6875 0.164062,0.199219 0.359375,0.367188 0.578125,0.5 C 2.578125,-0.125 2.832031,-0.0390625 3.125,0 3.582031,0.0703125 3.960938,0.00390625 4.265625,-0.203125 4.566406,-0.421875 4.75,-0.738281 4.8125,-1.15625 4.863281,-1.476562 4.820312,-1.789062 4.6875,-2.09375 4.5625,-2.40625 4.375,-2.710938 4.125,-3.015625 3.882812,-3.316406 3.617188,-3.613281 3.328125,-3.90625 3.046875,-4.207031 2.789062,-4.53125 2.5625,-4.875 2.332031,-5.21875 2.148438,-5.570312 2.015625,-5.9375 1.878906,-6.3125 1.847656,-6.71875 1.921875,-7.15625 1.972656,-7.519531 2.085938,-7.84375 2.265625,-8.125 2.453125,-8.40625 2.6875,-8.632812 2.96875,-8.8125 3.25,-9 3.5625,-9.125 3.90625,-9.1875 4.25,-9.25 4.613281,-9.25 5,-9.1875 c 0.53125,0.085938 0.957031,0.203125 1.28125,0.359375 0.332031,0.15625 0.582031,0.304687 0.75,0.4375 z m 0,0"
           id="path16" />
      </g>
    </g>
    <g
       style="fill:#000000;fill-opacity:1"
       id="g20">
      <g
         transform="translate(215.29411,117.9345)"
         id="g19">
        <path
           style="stroke:none"
           d="M 4.875,0.703125 C 5.050781,0.753906 5.238281,0.769531 5.4375,0.75 5.644531,0.738281 5.847656,0.695312 6.046875,0.625 6.242188,0.550781 6.441406,0.457031 6.640625,0.34375 6.835938,0.238281 7.019531,0.125 7.1875,0 l 0.09375,0.078125 -0.984375,1.3125 C 6.203125,1.398438 6.09375,1.414062 5.96875,1.4375 5.851562,1.457031 5.710938,1.472656 5.546875,1.484375 5.390625,1.492188 5.207031,1.488281 5,1.46875 4.789062,1.445312 4.546875,1.398438 4.265625,1.328125 3.453125,1.117188 2.875,0.726562 2.53125,0.15625 2.1875,-0.40625 2.140625,-1.15625 2.390625,-2.09375 l 1.625,-6.125 L 2.484375,-8.578125 2.6875,-9.375 c 0.1875,0.0625 0.410156,0.132812 0.671875,0.203125 0.257813,0.074219 0.546875,0.152344 0.859375,0.234375 0.101562,-0.4375 0.191406,-0.820312 0.265625,-1.15625 0.070313,-0.34375 0.128906,-0.640625 0.171875,-0.890625 0.039062,-0.25 0.070312,-0.460937 0.09375,-0.640625 0.019531,-0.175781 0.03125,-0.320312 0.03125,-0.4375 v -0.04687 l 2.109375,0.5625 V -11.5 c -0.0625,0.09375 -0.136719,0.226562 -0.21875,0.390625 -0.074219,0.15625 -0.152344,0.355469 -0.234375,0.59375 -0.085938,0.242187 -0.179688,0.527344 -0.28125,0.859375 -0.105469,0.324219 -0.214844,0.703125 -0.328125,1.140625 0.375,0.105469 0.742187,0.203125 1.109375,0.296875 0.375,0.085938 0.710938,0.15625 1.015625,0.21875 0.3125,0.0625 0.570313,0.117188 0.78125,0.15625 0.21875,0.042969 0.363281,0.070312 0.4375,0.078125 L 8.765625,-6.875 C 8.453125,-6.96875 8.128906,-7.066406 7.796875,-7.171875 7.503906,-7.253906 7.164062,-7.347656 6.78125,-7.453125 6.40625,-7.566406 6.019531,-7.679688 5.625,-7.796875 L 3.953125,-1.5 c -0.09375,0.386719 -0.136719,0.710938 -0.125,0.96875 0.00781,0.261719 0.0625,0.4765625 0.15625,0.640625 C 4.085938,0.273438 4.21875,0.40625 4.375,0.5 c 0.15625,0.09375 0.320312,0.160156 0.5,0.203125 z m 0,0"
           id="path18" />
      </g>
    </g>
    <g
       style="fill:#000000;fill-opacity:1"
       id="g22">
      <g
         transform="translate(221.71837,119.45489)"
         id="g21">
        <path
           style="stroke:none"
           d="M 4.09375,-1.890625 C 3.769531,-1.117188 3.6875,-0.488281 3.84375,0 4,0.488281 4.335938,0.835938 4.859375,1.046875 5.046875,1.128906 5.269531,1.179688 5.53125,1.203125 5.800781,1.222656 6.085938,1.21875 6.390625,1.1875 6.703125,1.15625 7.015625,1.101562 7.328125,1.03125 7.648438,0.96875 7.957031,0.878906 8.25,0.765625 8.320312,0.597656 8.398438,0.421875 8.484375,0.234375 8.566406,0.046875 8.648438,-0.15625 8.734375,-0.375 L 9.625,-2.484375 c 0.207031,-0.5 0.378906,-0.9375 0.515625,-1.3125 0.132813,-0.382813 0.25,-0.710937 0.34375,-0.984375 0.101563,-0.28125 0.171875,-0.515625 0.203125,-0.703125 0.03906,-0.1875 0.07031,-0.351563 0.09375,-0.5 l 0.01563,-0.046875 2.03125,0.84375 -0.01563,0.046875 c -0.09375,0.117187 -0.195312,0.257813 -0.296875,0.421875 -0.105469,0.15625 -0.226563,0.367188 -0.359375,0.625 -0.136719,0.25 -0.289062,0.5625 -0.453125,0.9375 -0.15625,0.375 -0.339844,0.8125 -0.546875,1.3125 L 10.265625,0.265625 C 10.066406,0.753906 9.894531,1.179688 9.75,1.546875 9.601562,1.921875 9.484375,2.25 9.390625,2.53125 9.296875,2.8125 9.226562,3.050781 9.1875,3.25 9.144531,3.445312 9.117188,3.613281 9.109375,3.75 L 9.09375,3.78125 7.0625,2.9375 7.078125,2.90625 C 7.171875,2.769531 7.28125,2.597656 7.40625,2.390625 7.539062,2.179688 7.695312,1.894531 7.875,1.53125 7.550781,1.632812 7.210938,1.726562 6.859375,1.8125 6.503906,1.894531 6.140625,1.953125 5.765625,1.984375 c -0.375,0.039063 -0.742187,0.039063 -1.09375,0 C 4.328125,1.953125 4.007812,1.875 3.71875,1.75 3.257812,1.5625 2.90625,1.320312 2.65625,1.03125 2.40625,0.75 2.234375,0.4375 2.140625,0.09375 2.046875,-0.238281 2.019531,-0.585938 2.0625,-0.953125 2.113281,-1.328125 2.207031,-1.6875 2.34375,-2.03125 L 3.59375,-5 C 3.800781,-5.5 3.972656,-5.9375 4.109375,-6.3125 4.253906,-6.695312 4.375,-7.023438 4.46875,-7.296875 c 0.09375,-0.269531 0.160156,-0.5 0.203125,-0.6875 0.039063,-0.195313 0.066406,-0.363281 0.078125,-0.5 L 4.765625,-8.53125 6.796875,-7.6875 6.78125,-7.640625 C 6.695312,-7.535156 6.601562,-7.398438 6.5,-7.234375 6.394531,-7.066406 6.273438,-6.851562 6.140625,-6.59375 c -0.136719,0.25 -0.289063,0.5625 -0.453125,0.9375 -0.167969,0.367188 -0.355469,0.796875 -0.5625,1.296875 z m 3.359375,-8.5 c 0.050781,-0.101563 0.117187,-0.191406 0.203125,-0.265625 0.082031,-0.08203 0.171875,-0.144531 0.265625,-0.1875 0.101563,-0.05078 0.210937,-0.07813 0.328125,-0.07813 0.113281,0 0.226562,0.02734 0.34375,0.07813 0.125,0.04297 0.222656,0.105469 0.296875,0.1875 0.070313,0.08594 0.128906,0.179688 0.171875,0.28125 0.050781,0.105469 0.078125,0.214844 0.078125,0.328125 0,0.117187 -0.027344,0.226563 -0.078125,0.328125 -0.042969,0.117188 -0.105469,0.214844 -0.1875,0.296875 -0.085938,0.085937 -0.179688,0.148437 -0.28125,0.1875 -0.105469,0.042969 -0.214844,0.0625 -0.328125,0.0625 -0.105469,0 -0.21875,-0.019531 -0.34375,-0.0625 C 7.804688,-9.285156 7.707031,-9.351562 7.625,-9.4375 7.550781,-9.519531 7.492188,-9.609375 7.453125,-9.703125 c -0.042969,-0.101563 -0.0625,-0.210937 -0.0625,-0.328125 0,-0.125 0.019531,-0.242188 0.0625,-0.359375 z m 3.234375,1.34375 c 0.05078,-0.101563 0.113281,-0.195313 0.1875,-0.28125 0.08203,-0.082031 0.171875,-0.144531 0.265625,-0.1875 0.101563,-0.039063 0.210937,-0.0625 0.328125,-0.0625 0.125,0 0.238281,0.023437 0.34375,0.0625 0.113281,0.054687 0.210938,0.121094 0.296875,0.203125 0.08203,0.085938 0.144531,0.179688 0.1875,0.28125 0.05078,0.105469 0.07031,0.214844 0.0625,0.328125 0,0.117187 -0.02734,0.226563 -0.07813,0.328125 -0.04297,0.117188 -0.105469,0.214844 -0.1875,0.296875 -0.07422,0.085937 -0.164062,0.148437 -0.265625,0.1875 -0.105469,0.042969 -0.21875,0.0625 -0.34375,0.0625 -0.117187,0 -0.230469,-0.023437 -0.34375,-0.078125 -0.105469,-0.039062 -0.199219,-0.101562 -0.28125,-0.1875 -0.08594,-0.082031 -0.148437,-0.175781 -0.1875,-0.28125 -0.04297,-0.101562 -0.0625,-0.210938 -0.0625,-0.328125 0.0078,-0.113281 0.03516,-0.226563 0.07813,-0.34375 z m 0,0"
           id="path20" />
      </g>
    </g>
    <g
       style="fill:#000000;fill-opacity:1"
       id="g24">
      <g
         transform="translate(230.98269,123.20688)"
         id="g23">
        <path
           style="stroke:none"
           d="m 7.53125,-6.1875 c 0.445312,0.042969 0.894531,0.136719 1.34375,0.28125 0.445312,0.148438 0.867188,0.34375 1.265625,0.59375 0.601563,0.375 1.09375,0.820312 1.46875,1.328125 0.375,0.511719 0.628906,1.070313 0.765625,1.671875 0.132812,0.605469 0.140625,1.242188 0.01563,1.90625 C 12.273438,0.25 12.007812,0.910156 11.59375,1.578125 11.25,2.117188 10.820312,2.585938 10.3125,2.984375 9.8125,3.378906 9.25,3.648438 8.625,3.796875 8.007812,3.953125 7.347656,3.972656 6.640625,3.859375 5.929688,3.742188 5.207031,3.453125 4.46875,2.984375 4.375,2.929688 4.257812,2.859375 4.125,2.765625 3.988281,2.671875 3.835938,2.5625 3.671875,2.4375 3.515625,2.3125 3.347656,2.175781 3.171875,2.03125 3.003906,1.894531 2.84375,1.742188 2.6875,1.578125 2.457031,1.359375 2.234375,1.128906 2.015625,0.890625 1.804688,0.660156 1.609375,0.425781 1.421875,0.1875 c 0.082031,-0.0625 0.1875,-0.18359375 0.3125,-0.359375 0.132813,-0.175781 0.273437,-0.375 0.421875,-0.59375 0.144531,-0.21875 0.285156,-0.429687 0.421875,-0.640625 0.144531,-0.207031 0.257813,-0.378906 0.34375,-0.515625 l 3.859375,-6.1875 C 7.0625,-8.566406 7.300781,-8.96875 7.5,-9.3125 7.695312,-9.664062 7.863281,-9.96875 8,-10.21875 c 0.144531,-0.257812 0.253906,-0.484375 0.328125,-0.671875 0.070313,-0.1875 0.125,-0.347656 0.15625,-0.484375 L 8.5,-11.390625 l 1.859375,1.15625 -0.01563,0.01563 C 10.238281,-10.125 10.125,-10 10,-9.84375 9.875,-9.695312 9.722656,-9.503906 9.546875,-9.265625 9.367188,-9.035156 9.164062,-8.753906 8.9375,-8.421875 c -0.21875,0.335937 -0.46875,0.730469 -0.75,1.1875 z M 4.390625,-1.171875 C 4.117188,-0.734375 3.894531,-0.367188 3.71875,-0.078125 3.550781,0.203125 3.425781,0.4375 3.34375,0.625 c 0.113281,0.3125 0.328125,0.644531 0.640625,1 0.3125,0.363281 0.695313,0.691406 1.15625,0.984375 0.382813,0.238281 0.78125,0.378906 1.1875,0.421875 0.414063,0.050781 0.820313,0 1.21875,-0.15625 0.40625,-0.148438 0.800781,-0.382812 1.1875,-0.703125 0.382813,-0.324219 0.734375,-0.742187 1.046875,-1.25 0.363281,-0.585937 0.644531,-1.15625 0.84375,-1.71875 0.207031,-0.5625 0.3125,-1.09375 0.3125,-1.59375 0,-0.507813 -0.117188,-0.972656 -0.34375,-1.390625 C 10.375,-4.207031 10.019531,-4.570312 9.53125,-4.875 9.125,-5.125 8.691406,-5.273438 8.234375,-5.328125 7.785156,-5.390625 7.34375,-5.34375 6.90625,-5.1875 Z m 0,0"
           id="path22" />
      </g>
    </g>
    <g
       style="fill:#000000;fill-opacity:1"
       id="g26">
      <g
         transform="translate(239.76695,128.63466)"
         id="g25">
        <path
           style="stroke:none"
           d="M 4.1875,3.875 C 3.65625,3.414062 3.234375,2.898438 2.921875,2.328125 2.609375,1.753906 2.414062,1.160156 2.34375,0.546875 2.28125,-0.0664062 2.359375,-0.695312 2.578125,-1.34375 c 0.21875,-0.644531 0.59375,-1.273438 1.125,-1.890625 0.476563,-0.539063 1.007813,-0.957031 1.59375,-1.25 0.582031,-0.300781 1.175781,-0.484375 1.78125,-0.546875 0.613281,-0.0625 1.21875,0 1.8125,0.1875 0.59375,0.1875 1.140625,0.496094 1.640625,0.921875 0.476562,0.429687 0.851562,0.90625 1.125,1.4375 0.28125,0.53125 0.429688,1.09375 0.453125,1.6875 0.03125,0.59375 -0.07422,1.203125 -0.3125,1.828125 C 11.566406,1.664062 11.195312,2.289062 10.6875,2.90625 10.15625,2.425781 9.617188,1.945312 9.078125,1.46875 8.546875,1 7.988281,0.507812 7.40625,0 6.988281,-0.363281 6.582031,-0.710938 6.1875,-1.046875 5.800781,-1.390625 5.445312,-1.691406 5.125,-1.953125 c -0.40625,0.53125 -0.726562,1.054687 -0.953125,1.5625 -0.21875,0.507813 -0.34375,1 -0.375,1.46875 -0.03125,0.46875 0.046875,0.914063 0.234375,1.34375 0.1875,0.4375 0.476562,0.828125 0.875,1.171875 0.28125,0.238281 0.570312,0.429688 0.875,0.578125 C 6.082031,4.328125 6.378906,4.4375 6.671875,4.5 6.972656,4.5625 7.269531,4.582031 7.5625,4.5625 7.863281,4.550781 8.144531,4.503906 8.40625,4.421875 L 8.453125,4.515625 6.8125,5.328125 C 6.445312,5.234375 6.039062,5.078125 5.59375,4.859375 5.15625,4.640625 4.6875,4.3125 4.1875,3.875 Z m 2.859375,-5.15625 c 0.46875,0.40625 0.941406,0.820312 1.421875,1.234375 0.488281,0.40625 0.929688,0.769531 1.328125,1.09375 0.332031,-0.449219 0.578125,-0.886719 0.734375,-1.3125 0.164062,-0.4375 0.253906,-0.847656 0.265625,-1.234375 0.01953,-0.382812 -0.04297,-0.75 -0.1875,-1.09375 C 10.472656,-2.945312 10.25,-3.253906 9.9375,-3.515625 9.664062,-3.753906 9.359375,-3.910156 9.015625,-3.984375 8.671875,-4.066406 8.3125,-4.070312 7.9375,-4 7.570312,-3.925781 7.191406,-3.769531 6.796875,-3.53125 6.410156,-3.300781 6.03125,-2.976562 5.65625,-2.5625 c 0.1875,0.210938 0.398438,0.417969 0.640625,0.625 0.238281,0.210938 0.488281,0.429688 0.75,0.65625 z m 0,0"
           id="path24" />
      </g>
    </g>
    <g
       style="fill:#000000;fill-opacity:1"
       id="g28">
      <g
         transform="translate(247.02429,135.02801)"
         id="g27">
        <path
           style="stroke:none"
           d="M 5.46875,-2.859375 C 5.875,-3.222656 6.222656,-3.539062 6.515625,-3.8125 c 0.289063,-0.269531 0.539063,-0.507812 0.75,-0.71875 0.207031,-0.207031 0.375,-0.390625 0.5,-0.546875 0.125,-0.15625 0.21875,-0.289063 0.28125,-0.40625 L 8.09375,-5.515625 9.53125,-3.875 9.484375,-3.84375 c -0.136719,0.0625 -0.292969,0.152344 -0.46875,0.265625 -0.179687,0.105469 -0.398437,0.265625 -0.65625,0.484375 0.289063,0.03125 0.59375,0.085938 0.90625,0.15625 0.320313,0.0625 0.625,0.148438 0.90625,0.25 0.28125,0.09375 0.546875,0.21875 0.796875,0.375 0.25,0.148438 0.460938,0.324219 0.640625,0.53125 0.125,0.125 0.21875,0.246094 0.28125,0.359375 0.0625,0.105469 0.113281,0.203125 0.15625,0.296875 0.05078,0.09375 0.09375,0.183594 0.125,0.265625 0.03125,0.085937 0.05078,0.164063 0.0625,0.234375 L 10.59375,0.21875 10.5,0.078125 c 0.164062,-0.238281 0.242188,-0.488281 0.234375,-0.75 -0.01172,-0.269531 -0.136719,-0.546875 -0.375,-0.828125 -0.125,-0.132812 -0.292969,-0.257812 -0.5,-0.375 C 9.660156,-2 9.441406,-2.101562 9.203125,-2.1875 8.972656,-2.269531 8.722656,-2.34375 8.453125,-2.40625 8.191406,-2.46875 7.925781,-2.519531 7.65625,-2.5625 7.5,-2.4375 7.335938,-2.300781 7.171875,-2.15625 c -0.15625,0.136719 -0.324219,0.28125 -0.5,0.4375 l -1.84375,1.625 C 4.429688,0.25 4.085938,0.554688 3.796875,0.828125 3.503906,1.109375 3.253906,1.351562 3.046875,1.5625 2.847656,1.769531 2.679688,1.945312 2.546875,2.09375 2.421875,2.25 2.320312,2.390625 2.25,2.515625 L 2.21875,2.53125 0.78125,0.890625 0.8125,0.875 C 0.9375,0.8125 1.082031,0.726562 1.25,0.625 1.425781,0.519531 1.628906,0.378906 1.859375,0.203125 2.085938,0.0234375 2.359375,-0.1875 2.671875,-0.4375 2.984375,-0.695312 3.335938,-1 3.734375,-1.34375 Z m 0,0"
           id="path26" />
      </g>
    </g>
    <g
       style="fill:#000000;fill-opacity:1"
       id="g30">
      <g
         transform="translate(251.63072,140.34009)"
         id="g29">
        <path
           style="stroke:none"
           d="m 9.34375,-4.953125 c 0.4375,-0.3125 0.8125,-0.59375 1.125,-0.84375 0.320312,-0.25 0.59375,-0.46875 0.8125,-0.65625 0.226562,-0.1875 0.410156,-0.351563 0.546875,-0.5 0.132813,-0.144531 0.242187,-0.265625 0.328125,-0.359375 l 0.03125,-0.015625 1.296875,1.765625 -0.03125,0.015625 c -0.136719,0.042969 -0.292969,0.109375 -0.46875,0.203125 -0.167969,0.085938 -0.375,0.203125 -0.625,0.359375 -0.25,0.148437 -0.542969,0.335937 -0.875,0.5625 -0.335937,0.230469 -0.71875,0.5 -1.15625,0.8125 L 4.859375,0.375 C 4.429688,0.6875 4.054688,0.96875 3.734375,1.21875 3.421875,1.46875 3.15625,1.6875 2.9375,1.875 2.71875,2.070312 2.535156,2.238281 2.390625,2.375 2.242188,2.519531 2.132812,2.648438 2.0625,2.765625 L 2.03125,2.78125 0.734375,1.015625 0.765625,1 C 0.890625,0.9375 1.039062,0.863281 1.21875,0.78125 1.40625,0.695312 1.617188,0.578125 1.859375,0.421875 c 0.25,-0.15625 0.539063,-0.3515625 0.875,-0.578125 0.332031,-0.226562 0.710937,-0.5 1.140625,-0.8125 z m 0,0"
           id="path28" />
      </g>
    </g>
    <g
       style="fill:#000000;fill-opacity:1"
       id="g32">
      <g
         transform="translate(254.13306,143.69913)"
         id="g31">
        <path
           style="stroke:none"
           d=""
           id="path30" />
      </g>
    </g>
    <g
       style="fill:#000000;fill-opacity:1"
       id="g34">
      <g
         transform="translate(257.25443,147.30905)"
         id="g33">
        <path
           style="stroke:none"
           d="m 0.28125,0.625 c 0.113281,0.03125 0.28125,0.050781 0.5,0.0625 C 1,0.695312 1.265625,0.664062 1.578125,0.59375 2.003906,0.507812 2.488281,0.40625 3.03125,0.28125 3.582031,0.164062 4.15625,0.046875 4.75,-0.078125 5.351562,-0.210938 5.96875,-0.351562 6.59375,-0.5 c 0.632812,-0.144531 1.253906,-0.285156 1.859375,-0.421875 0.601563,-0.132813 1.1875,-0.269531 1.75,-0.40625 0.5625,-0.132813 1.070313,-0.253906 1.53125,-0.359375 0.46875,-0.113281 0.867187,-0.210938 1.203125,-0.296875 0.34375,-0.082031 0.601562,-0.148437 0.78125,-0.203125 l 0.421875,1.125 -8.25,9.5625 12.515625,1.515625 0.3125,0.84375 L 8.765625,16.375 C 8.453125,16.539062 8.1875,16.691406 7.96875,16.828125 7.757812,16.960938 7.578125,17.082031 7.421875,17.1875 c -0.15625,0.113281 -0.28125,0.210938 -0.375,0.296875 -0.085937,0.08203 -0.15625,0.160156 -0.21875,0.234375 L 6.796875,17.73438 5.953125,15.51563 5.984375,15.5 C 6.054688,15.5 6.164062,15.48437 6.3125,15.45313 6.46875,15.421875 6.65625,15.363281 6.875,15.28125 6.945312,15.25 7.019531,15.21875 7.09375,15.1875 7.175781,15.15625 7.269531,15.113281 7.375,15.0625 L 15.40625,10.6875 3.578125,9.234375 3.421875,8.59375 11.25,-0.4375 C 9.757812,-0.113281 8.390625,0.195312 7.140625,0.5 6.617188,0.644531 6.09375,0.773438 5.5625,0.890625 5.03125,1.015625 4.539062,1.132812 4.09375,1.25 3.644531,1.375 3.242188,1.484375 2.890625,1.578125 c -0.34375,0.101563 -0.59375,0.1875 -0.75,0.25 -0.199219,0.082031 -0.375,0.15625 -0.53125,0.21875 -0.15625,0.0625 -0.28125,0.117187 -0.375,0.171875 -0.125,0.0625 -0.230469,0.125 -0.3125,0.1875 L 0.25,0.640625 Z m 0,0"
           id="path32" />
      </g>
    </g>
    <g
       style="fill:#000000;fill-opacity:1"
       id="g36">
      <g
         transform="translate(263.50779,164.53897)"
         id="g35">
        <path
           style="stroke:none"
           d="m 3.703125,2.546875 c -0.824219,0.113281 -1.40625,0.363281 -1.75,0.75 C 1.609375,3.679688 1.476562,4.15625 1.5625,4.71875 1.59375,4.925781 1.664062,5.144531 1.78125,5.375 c 0.125,0.238281 0.273438,0.484375 0.453125,0.734375 0.1875,0.25 0.390625,0.488281 0.609375,0.71875 0.226562,0.238281 0.460938,0.457031 0.703125,0.65625 C 3.722656,7.460938 3.914062,7.4375 4.125,7.40625 4.332031,7.382812 4.550781,7.359375 4.78125,7.328125 L 7.046875,7 C 7.585938,6.925781 8.054688,6.851562 8.453125,6.78125 8.847656,6.707031 9.1875,6.640625 9.46875,6.578125 c 0.28125,-0.0625 0.515625,-0.125 0.703125,-0.1875 0.1875,-0.0625 0.347656,-0.121094 0.484375,-0.171875 h 0.04687 l 0.3125,2.171875 H 10.96875 C 10.820312,8.367188 10.648438,8.351562 10.453125,8.34375 10.253906,8.34375 10.007812,8.34766 9.71875,8.359375 9.425781,8.378906 9.082031,8.410156 8.6875,8.453125 8.289062,8.503906 7.820312,8.566406 7.28125,8.640625 L 5.015625,8.96875 C 4.484375,9.039062 4.019531,9.109375 3.625,9.171875 3.226562,9.242188 2.882812,9.3125 2.59375,9.375 2.3125,9.445312 2.078125,9.507812 1.890625,9.5625 1.703125,9.625 1.546875,9.6875 1.421875,9.75 h -0.03125 l -0.3125,-2.171875 h 0.03125 c 0.164063,0 0.367187,0.00391 0.609375,0.015625 0.25,0.00781 0.578125,0 0.984375,-0.03125 C 2.441406,7.320312 2.1875,7.070312 1.9375,6.8125 1.6875,6.550781 1.453125,6.269531 1.234375,5.96875 1.015625,5.664062 0.828125,5.359375 0.671875,5.046875 0.523438,4.734375 0.429688,4.414062 0.390625,4.09375 0.316406,3.613281 0.34375,3.191406 0.46875,2.828125 c 0.125,-0.367187 0.304688,-0.679687 0.546875,-0.9375 0.238281,-0.25 0.53125,-0.453125 0.875,-0.609375 0.34375,-0.148438 0.695313,-0.246094 1.0625,-0.296875 L 6.140625,0.53125 C 6.679688,0.457031 7.144531,0.382812 7.53125,0.3125 7.925781,0.25 8.265625,0.179688 8.546875,0.109375 c 0.289063,-0.0625 0.53125,-0.1171875 0.71875,-0.171875 0.1875,-0.0625 0.34375,-0.125 0.46875,-0.1875 H 9.78125 l 0.3125,2.171875 H 10.04688 C 9.898438,1.910156 9.726562,1.898438 9.53125,1.890625 9.34375,1.890625 9.101562,1.894531 8.8125,1.90625 8.519531,1.925781 8.171875,1.957031 7.765625,2 7.367188,2.039062 6.898438,2.097656 6.359375,2.171875 Z m 0,0"
           id="path34" />
      </g>
    </g>
    <g
       style="fill:#000000;fill-opacity:1"
       id="g38">
      <g
         transform="translate(264.85817,174.63194)"
         id="g37">
        <path
           style="stroke:none"
           d="M 7.875,5.671875 7.84375,5.53125 C 7.988281,5.488281 8.140625,5.414062 8.296875,5.3125 8.460938,5.21875 8.613281,5.09375 8.75,4.9375 8.894531,4.78125 9.007812,4.59375 9.09375,4.375 9.1875,4.15625 9.226562,3.898438 9.21875,3.609375 9.21875,3.410156 9.1875,3.222656 9.125,3.046875 9.070312,2.878906 8.988281,2.726562 8.875,2.59375 8.769531,2.46875 8.628906,2.367188 8.453125,2.296875 8.285156,2.234375 8.09375,2.203125 7.875,2.203125 7.5625,2.203125 7.265625,2.300781 6.984375,2.5 6.710938,2.695312 6.441406,2.941406 6.171875,3.234375 5.898438,3.523438 5.625,3.835938 5.34375,4.171875 5.070312,4.515625 4.785156,4.832031 4.484375,5.125 4.191406,5.414062 3.875,5.660156 3.53125,5.859375 3.1875,6.054688 2.816406,6.15625 2.421875,6.15625 2.097656,6.164062 1.78125,6.113281 1.46875,6 1.164062,5.882812 0.890625,5.710938 0.640625,5.484375 0.398438,5.253906 0.203125,4.953125 0.046875,4.578125 -0.0976562,4.210938 -0.175781,3.773438 -0.1875,3.265625 -0.1875,2.960938 -0.160156,2.675781 -0.109375,2.40625 -0.0546875,2.144531 0.0078125,1.90625 0.09375,1.6875 0.175781,1.46875 0.269531,1.269531 0.375,1.09375 0.476562,0.925781 0.570312,0.773438 0.65625,0.640625 l 1.8125,0.0625 0.015625,0.15625 C 2.179688,0.929688 1.90625,1.03125 1.65625,1.15625 1.414062,1.28125 1.207031,1.4375 1.03125,1.625 0.863281,1.820312 0.734375,2.039062 0.640625,2.28125 0.546875,2.519531 0.5,2.785156 0.5,3.078125 c 0,0.46875 0.128906,0.832031 0.390625,1.09375 0.269531,0.269531 0.613281,0.40625 1.03125,0.40625 C 2.253906,4.566406 2.5625,4.46875 2.84375,4.28125 3.125,4.101562 3.390625,3.867188 3.640625,3.578125 3.898438,3.285156 4.15625,2.972656 4.40625,2.640625 4.65625,2.316406 4.925781,2.007812 5.21875,1.71875 5.519531,1.4375 5.84375,1.203125 6.1875,1.015625 6.539062,0.828125 6.941406,0.726562 7.390625,0.71875 c 0.363281,0 0.695313,0.0625 1,0.1875 0.3125,0.132812 0.578125,0.320312 0.796875,0.5625 0.21875,0.25 0.390625,0.539062 0.515625,0.875 0.125,0.332031 0.1875,0.695312 0.1875,1.09375 C 9.898438,3.96875 9.847656,4.40625 9.734375,4.75 9.628906,5.101562 9.53125,5.375 9.4375,5.5625 Z m 0,0"
           id="path36" />
      </g>
    </g>
    <g
       style="fill:#000000;fill-opacity:1"
       id="g40">
      <g
         transform="translate(264.89703,180.9595)"
         id="g39">
        <path
           style="stroke:none"
           d="M 5.875,1.96875 C 6.414062,2 6.882812,2.019531 7.28125,2.03125 7.6875,2.050781 8.03125,2.0625 8.3125,2.0625 c 0.289062,0 0.535156,-0.011719 0.734375,-0.03125 0.195313,-0.023438 0.363281,-0.042969 0.5,-0.0625 H 9.59375 L 9.4375,4.140625 H 9.390625 C 9.253906,4.085938 9.085938,4.035156 8.890625,3.984375 8.703125,3.941406 8.46875,3.894531 8.1875,3.84375 7.90625,3.800781 7.5625,3.757812 7.15625,3.71875 6.757812,3.675781 6.289062,3.640625 5.75,3.609375 L 3.453125,3.4375 C 2.921875,3.394531 2.457031,3.363281 2.0625,3.34375 1.664062,3.320312 1.316406,3.3125 1.015625,3.3125 0.722656,3.320312 0.476562,3.332031 0.28125,3.34375 c -0.1992188,0.019531 -0.3632812,0.046875 -0.5,0.078125 H -0.25 L -0.09375,1.25 H -0.0625 C 0.0703125,1.289062 0.234375,1.335938 0.421875,1.390625 0.617188,1.441406 0.863281,1.488281 1.15625,1.53125 1.445312,1.570312 1.789062,1.613281 2.1875,1.65625 2.582031,1.707031 3.046875,1.753906 3.578125,1.796875 Z M 12.453125,2.25 c 0.144531,0.00781 0.273437,0.046875 0.390625,0.109375 0.113281,0.070313 0.210938,0.15625 0.296875,0.25 0.09375,0.09375 0.160156,0.203125 0.203125,0.328125 0.03906,0.125 0.05469,0.257812 0.04687,0.40625 -0.01172,0.144531 -0.04687,0.273438 -0.109375,0.390625 -0.0625,0.113281 -0.148438,0.210937 -0.25,0.296875 -0.09375,0.09375 -0.20312,0.160156 -0.32812,0.203125 -0.125,0.039063 -0.261719,0.054687 -0.40625,0.046875 C 12.003906,4.257812 11.769531,4.144531 11.59375,3.9375 11.414062,3.726562 11.335938,3.476562 11.359375,3.1875 11.367188,3.039062 11.40625,2.910156 11.46875,2.796875 11.53125,2.679688 11.609375,2.582031 11.703125,2.5 c 0.101563,-0.085938 0.21875,-0.152344 0.34375,-0.203125 0.125,-0.042969 0.257813,-0.058594 0.40625,-0.046875 z m 0,0"
           id="path38" />
      </g>
    </g>
    <g
       style="fill:#000000;fill-opacity:1"
       id="g42">
      <g
         transform="translate(264.63038,185.13793)"
         id="g41">
        <path
           style="stroke:none"
           d=""
           id="path40" />
      </g>
    </g>
  </g>
</svg>
